# xmcd CD database file
# Copyright (C) 1995-1998 Ti Kan
#
# Track frame offsets:
#	150
#	21689
#	42375
#	70262
#	82562
#	106555
#	126430
#	153192
#	168204
#	187441
#	209714
#
# Disc length: 3002 seconds
#
# Revision: 1
# Processed by: cddbd v1.4b41PL1 Copyright (c) Steve Scherf et al.
# Submitted via: CDex 1.30
#
DISCID=960bb80b
DTITLE=T.C. Carr and The Catch - Black Shoes
DYEAR=1998
DGENRE=Blues
TTITLE0=Over My Sholder
TTITLE1=Heartless
TTITLE2=Goin' Fishin'
TTITLE3=Black Shoes
TTITLE4=Drown In My Own Tears
TTITLE5=Monkey See Monkey Do
TTITLE6=Bottom Line
TTITLE7=Hard Drive
TTITLE8=Bacon Fat
TTITLE9=I Only Have Love For You
TTITLE10=Harpoon Man
EXTD=\nYEAR: 1998  ID3G:   0
EXTT0=
EXTT1=
EXTT2=
EXTT3=
EXTT4=
EXTT5=
EXTT6=
EXTT7=
EXTT8=
EXTT9=
EXTT10=
PLAYORDER=
